# xmcd
# Track frame offsets:
# 150
# 16097
# 40916
# 58652
# 72414
# 83262
# 93782
# 104854
# 116137
# 126457
# 137205
# 152929
# 168593
# 180904
# 191819
# 203938
# 214321
# 225009
#
# Disc length: 3137 seconds
# Revision: 0
# Processed by: cddbd v1.5.2PL0 Copyright (c) Steve Scherf et al.
# Submitted via: VisiTrax 2.10.0.248 - For more info visit www.synapsa.com
#
DISCID=fc0c3f12
DTITLE=Willie Nelson - Willie Nelson and Freinds
DYEAR=2003
DGENRE=
TTITLE0=Willie Nelson - Crazy
TTITLE1=Willie Nelson - Funny How Time Slips Away
TTITLE2=Willie Nelson - Night Life
TTITLE3=Willie Nelson - Rainy Day Blues
TTITLE4=Willie Nelson - Hello Walls
TTITLE5=Willie Nelson - The Part Where I Cry
TTITLE6=Willie Nelson - At The Bottom
TTITLE7=Willie Nelson - You Took My Happy Away
TTITLE8=Willie Nelson With Hank Cochran - There'll Be No Teardrops Tonight
TTITLE9=Willie Nelson With Tanya Tucker - Ain't Life Hell
TTITLE10=Willie Nelson With Asleep At The Wheel - Fire To Fire
TTITLE11=Willie Nelson With Shirley Collie - Still Water Runs The Deepest
TTITLE12=Willie Nelson - Willingly
TTITLE13=Willie Nelson - Together
TTITLE14=Willie Nelson - Our Chain Of Love
TTITLE15=Willie Nelson - Columbus Stockade Blues
TTITLE16=Willie Nelson - Is This My Destiny
TTITLE17=Willie Nelson - You Dream About Me
EXTD=
EXTT0=
EXTT1=
EXTT2=
EXTT3=
EXTT4=
EXTT5=
EXTT6=
EXTT7=
EXTT8=
EXTT9=
EXTT10=
EXTT11=
EXTT12=
EXTT13=
EXTT14=
EXTT15=
EXTT16=
EXTT17=
PLAYORDER=
